<?xml version="1.0" encoding="utf-8"?>
<!-- Generator: Adobe Illustrator 22.1.0, SVG Export Plug-In . SVG Version: 6.00 Build 0)  -->
<svg version="1.1" id="Calque_4" xmlns="http://www.w3.org/2000/svg" xmlns:xlink="http://www.w3.org/1999/xlink" x="0px" y="0px"
	 viewBox="0 0 6601.5 1700.9" style="enable-background:new 0 0 6601.5 1700.9;" xml:space="preserve">
<style type="text/css">
	.st0{clip-path:url(#SVGID_2_);fill:#09BAB5;}
	.st1{clip-path:url(#SVGID_2_);fill:#3BCCC8;}
	.st2{clip-path:url(#SVGID_2_);fill:#68D9D7;}
	.st3{clip-path:url(#SVGID_2_);fill:#98EBE8;}
	.st4{clip-path:url(#SVGID_2_);fill:none;}
	.st5{clip-path:url(#SVGID_2_);}
	.st6{clip-path:url(#SVGID_2_);fill:#C1F3F1;}
	.st7{fill:#C1F3F1;}
	.st8{clip-path:url(#SVGID_2_);fill:none;stroke:#FFFFFF;stroke-width:2;stroke-miterlimit:10;}
	.st9{clip-path:url(#SVGID_6_);fill:none;stroke:#FFFFFF;stroke-width:2;stroke-miterlimit:10;}
	.st10{clip-path:url(#SVGID_8_);}
	.st11{fill:none;stroke:#FFFFFF;stroke-width:2;stroke-miterlimit:10;}
	.st12{fill:none;stroke:#FFFFFF;stroke-width:2;stroke-miterlimit:10;stroke-dasharray:10.1007,10.1007;}
	.st13{clip-path:url(#SVGID_10_);}
	.st14{fill:none;stroke:#FFFFFF;stroke-width:2;stroke-miterlimit:10;stroke-dasharray:9.9825,9.9825;}
	.st15{clip-path:url(#SVGID_12_);fill:none;stroke:#FFFFFF;stroke-width:2;stroke-miterlimit:10;stroke-dasharray:10;}
	.st16{clip-path:url(#SVGID_14_);fill:none;stroke:#FFFFFF;stroke-width:2;stroke-miterlimit:10;}
	.st17{clip-path:url(#SVGID_16_);fill:none;stroke:#FFFFFF;stroke-width:2;stroke-miterlimit:10;}
	.st18{clip-path:url(#SVGID_18_);fill:#FFFFFF;}
	.st19{clip-path:url(#SVGID_20_);}
	.st20{fill:#98EBE8;}
	.st21{font-family:'IBMPlexSans-SemiBold';}
	.st22{font-size:17px;}
	.st23{clip-path:url(#SVGID_2_);fill:#FFFFFF;stroke:#FFFFFF;stroke-width:2;stroke-miterlimit:10;}
	.st24{clip-path:url(#SVGID_22_);}
	.st25{clip-path:url(#SVGID_24_);}
	.st26{fill:#98EBEB;}
	.st27{font-family:'IBMPlexSans-Light';}
	.st28{font-size:11.7429px;}
	.st29{clip-path:url(#SVGID_26_);fill:none;stroke:#FFFFFF;stroke-width:2;stroke-miterlimit:10;}
	.st30{clip-path:url(#SVGID_26_);fill:#FFFFFF;}
	.st31{clip-path:url(#SVGID_26_);fill:none;stroke:#FFFFFF;stroke-width:2;stroke-miterlimit:10;stroke-dasharray:10;}
	.st32{clip-path:url(#SVGID_28_);}
	.st33{clip-path:url(#SVGID_30_);}
	.st34{clip-path:url(#SVGID_32_);fill:none;stroke:#FFFFFF;stroke-width:2;stroke-miterlimit:10;stroke-dasharray:10;}
	.st35{clip-path:url(#SVGID_34_);fill:none;stroke:#FFFFFF;stroke-width:2;stroke-miterlimit:10;}
	.st36{clip-path:url(#SVGID_36_);fill:none;stroke:#FFFFFF;stroke-width:2;stroke-miterlimit:10;}
	.st37{clip-path:url(#SVGID_38_);fill:#FFFFFF;}
	.st38{clip-path:url(#SVGID_40_);}
	.st39{enable-background:new    ;}
	.st40{clip-path:url(#SVGID_42_);}
	.st41{clip-path:url(#SVGID_44_);}
</style>
<g>
	<defs>
		<rect id="SVGID_1_" width="6601.5" height="1700.9"/>
	</defs>
	<clipPath id="SVGID_2_">
		<use xlink:href="#SVGID_1_"  style="overflow:visible;"/>
	</clipPath>
	<rect x="-192" y="-24.1" class="st0" width="6858.4" height="1794"/>
	<path class="st1" d="M-53.4,246H3179c12.1,0,23.8,4.8,32.4,13.4l12.8,12.8c8.6,8.6,20.2,13.4,32.4,13.4h1176
		c12.1,0,23.8-4.8,32.4-13.4l17.2-17.2c8.6-8.6,20.2-13.4,32.4-13.4h570.1c12.1,0,23.8-4.8,32.4-13.4l14.7-14.7
		c8.6-8.6,20.2-13.4,32.4-13.4h1456.6c25.3,0,45.8,20.5,45.8,45.8V1706c0,25.3-20.6,45.8-45.9,45.8L-53.5,1740L-53.4,246z"/>
	<path class="st2" d="M-53.5,394.9l1566.9,1c7.9,0,15.5,3.1,21.3,8.5l72.4,69.1c5.7,5.5,13.3,8.5,21.3,8.5h287.1
		c7.1,0,14-2.5,19.6-7l33.9-27.9c5.5-4.5,12.4-7,19.6-7h1547.6c7.5,0,14.8,2.8,20.5,7.8l28.2,25.1c5.6,5,12.9,7.8,20.4,7.8l647,1.9
		c7.4,0,14.6-2.6,20.2-7.5l34.4-29.8c5.6-4.8,12.8-7.5,20.2-7.5l829.8,1c9.1,0,17.7-4,23.5-10.9l24.9-29.5
		c5.9-6.9,14.5-10.9,23.6-10.9l648.8,1.9c9.2,0,17.9,4.1,23.7,11.2l22.9,27.9c5.9,7.1,14.6,11.3,23.9,11.2l687.5-1.9
		c17,0,30.9,13.7,30.9,30.8V1723c0,17-13.8,30.8-30.8,30.8L-53.5,1754V394.9z"/>
	<path class="st3" d="M-53.4,629.9h2134.8c9.6,0,18.8,3.8,25.6,10.6l34.9,34.9c6.8,6.8,16,10.6,25.6,10.6h627.9
		c9.4,0,18.4-3.7,25.2-10.2l42-40.6c6.7-6.5,15.8-10.2,25.2-10.2h650.5c8.9,0,17.4-3.3,24-9.2l25.1-22.3c6.6-5.9,15.2-9.2,24-9.2
		H4436c10.2,0,19.9,4.3,26.7,11.8l20.1,22.1c6.9,7.5,16.5,11.8,26.7,11.8h464.3c9.5,0,18.5-3.7,25.3-10.3l25.9-25.3
		c6.8-6.6,15.8-10.3,25.3-10.3h1580c20,0,36.2,16.2,36.2,36.2v1095.5c0,20-16.2,36.2-36.2,36.2l-6683.8-12L-53.4,629.9z"/>
	<rect class="st4" width="6601.5" height="1700.9"/>
	<rect class="st4" width="6601.5" height="1700.9"/>
	<rect class="st4" width="6601.5" height="1700.9"/>
	<rect class="st4" width="6601.5" height="1700.9"/>
	<rect class="st4" width="6601.5" height="1700.9"/>
	<rect class="st4" width="6601.5" height="1700.9"/>
	<rect class="st4" width="6601.5" height="1700.9"/>
	<polygon class="st4" points="45.7,824.6 1413.5,824.6 1446.5,787.5 2993.5,787.5 3034.3,825 3385.6,825 3461.4,734.2 4218.7,734.2 
		4266.3,779.8 5063.5,779.8 5216.2,779.9 5217.5,737.5 5357.5,737.5 5330.8,681 5897.5,681 5891.5,634.6 6666.4,634.6 
		6666.4,1751.9 45.7,1739.9 	"/>
	<polygon class="st4" points="45.7,824.6 1413.5,824.6 1446.5,787.5 2993.5,787.5 3034.3,825 3385.6,825 3461.4,734.2 4218.7,734.2 
		4266.3,779.8 5063.5,779.8 5216.2,779.9 5217.5,737.5 5357.5,737.5 5330.8,681 5897.5,681 5891.5,634.6 6666.4,634.6 
		6666.4,1751.9 45.7,1739.9 	"/>
	<polygon class="st4" points="45.7,824.6 1413.5,824.6 1446.5,787.5 2993.5,787.5 3034.3,825 3385.6,825 3461.4,734.2 4218.7,734.2 
		4266.3,779.8 5063.5,779.8 5216.2,779.9 5217.5,737.5 5357.5,737.5 5330.8,681 5897.5,681 5891.5,634.6 6666.4,634.6 
		6666.4,1751.9 45.7,1739.9 	"/>
	<polygon class="st4" points="45.7,824.6 1413.5,824.6 1446.5,787.5 2993.5,787.5 3034.3,825 3385.6,825 3461.4,734.2 4218.7,734.2 
		4266.3,779.8 5063.5,779.8 5216.2,779.9 5217.5,737.5 5357.5,737.5 5330.8,681 5897.5,681 5891.5,634.6 6666.4,634.6 
		6666.4,1751.9 45.7,1739.9 	"/>
	<polygon class="st4" points="45.7,824.6 1413.5,824.6 1446.5,787.5 2993.5,787.5 3034.3,825 3385.6,825 3461.4,734.2 4218.7,734.2 
		4266.3,779.8 5063.5,779.8 5216.2,779.9 5217.5,737.5 5357.5,737.5 5330.8,681 5897.5,681 5891.5,634.6 6666.4,634.6 
		6666.4,1751.9 45.7,1739.9 	"/>
	<polygon class="st4" points="45.7,824.6 1413.5,824.6 1446.5,787.5 2993.5,787.5 3034.3,825 3385.6,825 3461.4,734.2 4218.7,734.2 
		4266.3,779.8 5063.5,779.8 5216.2,779.9 5217.5,737.5 5357.5,737.5 5330.8,681 5897.5,681 5891.5,634.6 6666.4,634.6 
		6666.4,1751.9 45.7,1739.9 	"/>
	<polygon class="st4" points="45.7,824.6 1413.5,824.6 1446.5,787.5 2993.5,787.5 3034.3,825 3385.6,825 3461.4,734.2 4218.7,734.2 
		4266.3,779.8 5063.5,779.8 5216.2,779.9 5217.5,737.5 5357.5,737.5 5330.8,681 5897.5,681 5891.5,634.6 6666.4,634.6 
		6666.4,1751.9 45.7,1739.9 	"/>
	<polygon class="st4" points="45.7,824.6 1413.5,824.6 1446.5,787.5 2993.5,787.5 3034.3,825 3385.6,825 3461.4,734.2 4218.7,734.2 
		4266.3,779.8 5063.5,779.8 5216.2,779.9 5217.5,737.5 5357.5,737.5 5330.8,681 5897.5,681 5891.5,634.6 6666.4,634.6 
		6666.4,1751.9 45.7,1739.9 	"/>
	<polygon class="st4" points="45.7,824.6 1413.5,824.6 1446.5,787.5 2993.5,787.5 3034.3,825 3385.6,825 3461.4,734.2 4218.7,734.2 
		4266.3,779.8 5063.5,779.8 5216.2,779.9 5217.5,737.5 5357.5,737.5 5330.8,681 5897.5,681 5891.5,634.6 6666.4,634.6 
		6666.4,1751.9 45.7,1739.9 	"/>
	<polygon class="st4" points="45.7,824.6 1413.5,824.6 1446.5,787.5 2993.5,787.5 3034.3,825 3385.6,825 3461.4,734.2 4218.7,734.2 
		4266.3,779.8 5063.5,779.8 5216.2,779.9 5217.5,737.5 5357.5,737.5 5330.8,681 5897.5,681 5891.5,634.6 6666.4,634.6 
		6666.4,1751.9 45.7,1739.9 	"/>
	<polygon class="st4" points="45.7,824.6 1413.5,824.6 1446.5,787.5 2993.5,787.5 3034.3,825 3385.6,825 3461.4,734.2 4218.7,734.2 
		4266.3,779.8 5063.5,779.8 5216.2,779.9 5217.5,737.5 5357.5,737.5 5330.8,681 5897.5,681 5891.5,634.6 6666.4,634.6 
		6666.4,1751.9 45.7,1739.9 	"/>
	<polygon class="st4" points="45.7,824.6 1413.5,824.6 1446.5,787.5 2993.5,787.5 3034.3,825 3385.6,825 3461.4,734.2 4218.7,734.2 
		4266.3,779.8 5063.5,779.8 5216.2,779.9 5217.5,737.5 5357.5,737.5 5330.8,681 5897.5,681 5891.5,634.6 6666.4,634.6 
		6666.4,1751.9 45.7,1739.9 	"/>
	<polygon class="st4" points="45.7,824.6 1413.5,824.6 1446.5,787.5 2993.5,787.5 3034.3,825 3385.6,825 3461.4,734.2 4218.7,734.2 
		4266.3,779.8 5063.5,779.8 5216.2,779.9 5217.5,737.5 5357.5,737.5 5330.8,681 5897.5,681 5891.5,634.6 6666.4,634.6 
		6666.4,1751.9 45.7,1739.9 	"/>
	<polygon class="st4" points="45.7,824.6 1413.5,824.6 1446.5,787.5 2993.5,787.5 3034.3,825 3385.6,825 3461.4,734.2 4218.7,734.2 
		4266.3,779.8 5063.5,779.8 5216.2,779.9 5217.5,737.5 5357.5,737.5 5330.8,681 5897.5,681 5891.5,634.6 6666.4,634.6 
		6666.4,1751.9 45.7,1739.9 	"/>
	<polygon class="st4" points="45.7,824.6 1413.5,824.6 1446.5,787.5 2993.5,787.5 3034.3,825 3385.6,825 3461.4,734.2 4218.7,734.2 
		4266.3,779.8 5063.5,779.8 5216.2,779.9 5217.5,737.5 5357.5,737.5 5330.8,681 5897.5,681 5891.5,634.6 6666.4,634.6 
		6666.4,1751.9 45.7,1739.9 	"/>
	<g class="st5">
		<defs>
			<rect id="SVGID_3_" width="6601.5" height="1700.9"/>
		</defs>
		<clipPath id="SVGID_4_">
			<use xlink:href="#SVGID_3_"  style="overflow:visible;"/>
		</clipPath>
	</g>
	<polygon class="st6" points="4123.4,1226.9 4172.8,1177.5 3729.6,734.2 3630.6,734.2 	"/>
	<g class="st5">
		<path class="st7" d="M5189.4,1099.2H4799c-6.7,0-13.2-2.8-17.9-7.6l-123.7-150.4c-4.7-4.9-11.1-7.6-17.9-7.6h-524.1
			c-5.5,0-10.9-1.9-15.3-5.3l-98-77c-4.4-3.4-9.7-5.3-15.3-5.3h-922.6c-6.3,0-12.4-2.4-17-6.8l-35.7-33.8c-4.6-4.4-10.7-6.8-17-6.8
			h-1548c-7.1,0-13.8,3-18.5,8.3l-18.3,20.5c-4.7,5.3-11.4,8.3-18.5,8.3H-53.5V1751l6695.2,11.9c13.7,0,24.8-11.1,24.8-24.7V952.1
			c0-13.7-11.1-24.7-24.7-24.7h-1335l-24.1,69.2l-116.9-1.4L5189.4,1099.2z"/>
	</g>
	<polygon class="st6" points="3829,734.2 4321.8,1226.9 4371.2,1177.5 3928,734.2 	"/>
	<polygon class="st6" points="4027.5,734.2 4520.3,1226.9 4569.7,1177.5 4126.5,734.2 	"/>
	<polygon class="st6" points="4718.7,1226.9 4768.1,1177.5 4370.5,779.8 4271.5,779.8 	"/>
	<polygon class="st6" points="4917.2,1226.9 4966.6,1177.5 4569,779.8 4470,779.8 	"/>
	<polygon class="st6" points="4668.4,779.8 5115.6,1226.9 5165,1177.5 4767.4,779.8 	"/>
	<polygon class="st6" points="4866.8,779.8 5314,1226.9 5363.4,1177.5 4965.8,779.8 	"/>
	<polygon class="st6" points="5065.3,779.8 5512.5,1226.9 5561.9,1177.5 5164.4,779.9 	"/>
	<polygon class="st6" points="5710.9,1226.9 5760.3,1177.5 5320.4,737.5 5221.4,737.5 	"/>
	<polygon class="st6" points="5363.3,681 5909.3,1226.9 5958.7,1177.5 5462.3,681 	"/>
	<polygon class="st6" points="5561.8,681 6107.8,1226.9 6157.2,1177.5 5660.8,681 	"/>
	<polygon class="st6" points="5760.2,681 6306.2,1226.9 6355.6,1177.5 5859.2,681 	"/>
	<polygon class="st6" points="6475.1,1197.4 6524.5,1148 5981.7,605.1 5882.7,605.1 	"/>
	<polygon class="st6" points="6636.9,1160.8 6636.9,1061.8 6180.2,605.1 6081.2,605.1 	"/>
	<polygon class="st6" points="6636.9,962.4 6636.9,863.4 6378.6,605.1 6279.6,605.1 	"/>
	<polygon class="st6" points="6636.9,764 6636.9,665 6577,605.1 6478,605.1 	"/>
	<rect class="st4" width="6601.5" height="1700.9"/>
	<polyline class="st8" points="3914,1530.5 3913.3,1590.7 6058.3,1590.7 6113.7,1530.5 	"/>
	<g class="st5">
		<defs>
			<rect id="SVGID_5_" width="6601.5" height="1700.9"/>
		</defs>
		<clipPath id="SVGID_6_">
			<use xlink:href="#SVGID_5_"  style="overflow:visible;"/>
		</clipPath>
		<rect x="1975.7" y="1162.5" class="st9" width="4897.8" height="368"/>
	</g>
	<g class="st5">
		<defs>
			<rect id="SVGID_7_" width="6601.5" height="1700.9"/>
		</defs>
		<clipPath id="SVGID_8_">
			<use xlink:href="#SVGID_7_"  style="overflow:visible;"/>
		</clipPath>
		<g class="st10">
			<g>
				<line class="st11" x1="2693.1" y1="1286.9" x2="2688.1" y2="1286.9"/>
				<line class="st12" x1="2678" y1="1286.9" x2="2016.4" y2="1286.9"/>
				<line class="st11" x1="2011.4" y1="1286.9" x2="2006.4" y2="1286.9"/>
			</g>
		</g>
	</g>
	<g class="st5">
		<defs>
			<rect id="SVGID_9_" width="6601.5" height="1700.9"/>
		</defs>
		<clipPath id="SVGID_10_">
			<use xlink:href="#SVGID_9_"  style="overflow:visible;"/>
		</clipPath>
		<g class="st13">
			<g>
				<line class="st11" x1="6804.7" y1="1286.9" x2="6799.7" y2="1286.9"/>
				<line class="st14" x1="6789.7" y1="1286.9" x2="3061.3" y2="1286.9"/>
				<line class="st11" x1="3056.3" y1="1286.9" x2="3051.3" y2="1286.9"/>
			</g>
		</g>
	</g>
	<g class="st5">
		<defs>
			<rect id="SVGID_11_" width="6601.5" height="1700.9"/>
		</defs>
		<clipPath id="SVGID_12_">
			<use xlink:href="#SVGID_11_"  style="overflow:visible;"/>
		</clipPath>
		<path class="st15" d="M6745.5,1343.1H5235.6c-11.9,0-23.2,5.5-30.5,14.9l-45,57.6c-7.3,9.4-18.6,14.9-30.5,14.9h-1877
			c-10.7,0-20.9,4.4-28.2,12.2l-26.4,28.1c-7.3,7.8-17.5,12.2-28.2,12.2h-577.2c-10.5,0-20.6-4.3-27.9-11.9l-36.5-38.1
			c-7.3-7.6-17.4-11.9-27.9-11.9h-493.9"/>
	</g>
	<g class="st5">
		<defs>
			<rect id="SVGID_13_" width="6601.5" height="1700.9"/>
		</defs>
		<clipPath id="SVGID_14_">
			<use xlink:href="#SVGID_13_"  style="overflow:visible;"/>
		</clipPath>
		<line class="st16" x1="3779.5" y1="1117.9" x2="6689.5" y2="1117.9"/>
	</g>
	<g class="st5">
		<defs>
			<rect id="SVGID_15_" width="6601.5" height="1700.9"/>
		</defs>
		<clipPath id="SVGID_16_">
			<use xlink:href="#SVGID_15_"  style="overflow:visible;"/>
		</clipPath>
		<line class="st17" x1="3726.6" y1="1162.5" x2="3779.5" y2="1117.9"/>
	</g>
	<g class="st5">
		<defs>
			<rect id="SVGID_17_" width="6601.5" height="1700.9"/>
		</defs>
		<clipPath id="SVGID_18_">
			<use xlink:href="#SVGID_17_"  style="overflow:visible;"/>
		</clipPath>
		<rect x="1975.7" y="1162.5" class="st18" width="30.7" height="368"/>
	</g>
	<g class="st5">
		<defs>
			<rect id="SVGID_19_" y="-17" width="6601.5" height="1700.9"/>
		</defs>
		<clipPath id="SVGID_20_">
			<use xlink:href="#SVGID_19_"  style="overflow:visible;"/>
		</clipPath>
		<g class="st19">
			<text transform="matrix(0 -1 1 0 1997.4132 1491.623)" class="st20 st21 st22">World Wide Web Consortium (W3C)</text>
		</g>
	</g>
	<rect x="3780.2" y="1530.5" class="st23" width="133.1" height="60.2"/>
	<g class="st5">
		<defs>
			<rect id="SVGID_21_" x="-11" width="6601.5" height="1700.9"/>
		</defs>
		<clipPath id="SVGID_22_">
			<use xlink:href="#SVGID_21_"  style="overflow:visible;"/>
		</clipPath>
		<g class="st24">
			<text transform="matrix(1 0 0 1 3794.4824 1551.8254)" class="st20 st21 st22">IDPF</text>
		</g>
	</g>
	<g class="st5">
		<defs>
			<rect id="SVGID_23_" x="-11" width="6601.5" height="1700.9"/>
		</defs>
		<clipPath id="SVGID_24_">
			<use xlink:href="#SVGID_23_"  style="overflow:visible;"/>
		</clipPath>
		<g class="st25">
			<text transform="matrix(1 0 0 1 3794.4819 1567.3163)" class="st26 st27 st28">International Digital  </text>
			<text transform="matrix(1 0 0 1 3794.4819 1581.4163)" class="st26 st27 st28">Publishing Forum </text>
		</g>
	</g>
	<rect class="st4" width="6601.5" height="1700.9"/>
	<polyline class="st8" points="3914,1530.5 3913.3,1590.7 6058.3,1590.7 6113.7,1530.5 	"/>
	<g class="st5">
		<defs>
			<rect id="SVGID_25_" width="6601.5" height="1700.9"/>
		</defs>
		<clipPath id="SVGID_26_">
			<use xlink:href="#SVGID_25_"  style="overflow:visible;"/>
		</clipPath>
		<rect x="1975.7" y="1162.5" class="st29" width="4897.8" height="368"/>
		<polygon class="st30" points="3742.8,1162.5 3722.8,1162.5 3762.5,1116.9 3782.5,1116.9 		"/>
		<polygon class="st30" points="6076,1591.7 6056,1591.7 6112.3,1529.5 6132.3,1529.5 		"/>
		<path class="st31" d="M6605.1,1485.6H6179c-4.8,0-9.4,2.1-12.7,5.7l-34.1,38.2"/>
	</g>
	<g class="st5">
		<defs>
			<rect id="SVGID_27_" width="6601.5" height="1700.9"/>
		</defs>
		<clipPath id="SVGID_28_">
			<use xlink:href="#SVGID_27_"  style="overflow:visible;"/>
		</clipPath>
		<g class="st32">
			<g>
				<line class="st11" x1="2693.1" y1="1286.9" x2="2688.1" y2="1286.9"/>
				<line class="st12" x1="2678" y1="1286.9" x2="2016.4" y2="1286.9"/>
				<line class="st11" x1="2011.4" y1="1286.9" x2="2006.4" y2="1286.9"/>
			</g>
		</g>
	</g>
	<g class="st5">
		<defs>
			<rect id="SVGID_29_" width="6601.5" height="1700.9"/>
		</defs>
		<clipPath id="SVGID_30_">
			<use xlink:href="#SVGID_29_"  style="overflow:visible;"/>
		</clipPath>
		<g class="st33">
			<g>
				<line class="st11" x1="6804.7" y1="1286.9" x2="6799.7" y2="1286.9"/>
				<line class="st14" x1="6789.7" y1="1286.9" x2="3061.3" y2="1286.9"/>
				<line class="st11" x1="3056.3" y1="1286.9" x2="3051.3" y2="1286.9"/>
			</g>
		</g>
	</g>
	<g class="st5">
		<defs>
			<rect id="SVGID_31_" width="6601.5" height="1700.9"/>
		</defs>
		<clipPath id="SVGID_32_">
			<use xlink:href="#SVGID_31_"  style="overflow:visible;"/>
		</clipPath>
		<path class="st34" d="M6745.5,1343.1H5235.6c-11.9,0-23.2,5.5-30.5,14.9l-45,57.6c-7.3,9.4-18.6,14.9-30.5,14.9h-1877
			c-10.7,0-20.9,4.4-28.2,12.2l-26.4,28.1c-7.3,7.8-17.5,12.2-28.2,12.2h-577.2c-10.5,0-20.6-4.3-27.9-11.9l-36.5-38.1
			c-7.3-7.6-17.4-11.9-27.9-11.9h-493.9"/>
	</g>
	<g class="st5">
		<defs>
			<rect id="SVGID_33_" width="6601.5" height="1700.9"/>
		</defs>
		<clipPath id="SVGID_34_">
			<use xlink:href="#SVGID_33_"  style="overflow:visible;"/>
		</clipPath>
		<line class="st35" x1="3779.5" y1="1117.9" x2="6689.5" y2="1117.9"/>
	</g>
	<g class="st5">
		<defs>
			<rect id="SVGID_35_" width="6601.5" height="1700.9"/>
		</defs>
		<clipPath id="SVGID_36_">
			<use xlink:href="#SVGID_35_"  style="overflow:visible;"/>
		</clipPath>
		<line class="st36" x1="3726.6" y1="1162.5" x2="3779.5" y2="1117.9"/>
	</g>
	<g class="st5">
		<defs>
			<rect id="SVGID_37_" width="6601.5" height="1700.9"/>
		</defs>
		<clipPath id="SVGID_38_">
			<use xlink:href="#SVGID_37_"  style="overflow:visible;"/>
		</clipPath>
		<rect x="1975.7" y="1162.5" class="st37" width="30.7" height="368"/>
	</g>
	<g class="st5">
		<defs>
			<rect id="SVGID_39_" y="-17" width="6601.5" height="1700.9"/>
		</defs>
		<clipPath id="SVGID_40_">
			<use xlink:href="#SVGID_39_"  style="overflow:visible;"/>
		</clipPath>
		<g class="st38">
			<g class="st39">
				<path class="st20" d="M1997.4,1488.4l-11.9,2.8v-2.2l5.7-1.2l3.6-0.7v-0.1l-3.6-0.8l-5.7-1.4v-2.5l5.7-1.4l3.6-0.8v-0.1
					l-3.6-0.7l-5.7-1.2v-2.1l11.9,2.8v2.5l-6.3,1.5l-3.1,0.7v0l3.1,0.8l6.3,1.5V1488.4z"/>
				<path class="st20" d="M1993,1475.2c-2.8,0-4.6-1.6-4.6-4.1c0-2.5,1.8-4.1,4.6-4.1c2.9,0,4.7,1.6,4.7,4.1
					C1997.6,1473.6,1995.8,1475.2,1993,1475.2z M1993.8,1469.2h-1.6c-1.3,0-2.1,0.7-2.1,1.9c0,1.1,0.7,1.8,2.1,1.8h1.6
					c1.3,0,2.1-0.7,2.1-1.8C1995.9,1469.9,1995.1,1469.2,1993.8,1469.2z"/>
				<path class="st20" d="M1997.4,1465h-8.9v-2.2h1.8v-0.1c-0.9-0.2-1.8-0.9-1.8-2.3v-0.5h2.1v0.7c0,1.5,0.4,2.2,1.4,2.2h5.4V1465z"
					/>
				<path class="st20" d="M1997.4,1456.2c0,1.5-0.8,2.2-2.1,2.2h-10.4v-2.2h10.8v-1.2h1.7V1456.2z"/>
				<path class="st20" d="M1995.9,1447.8L1995.9,1447.8c1,0.4,1.7,1.4,1.7,2.5c0,2.2-1.7,3.5-4.7,3.5c-3,0-4.6-1.2-4.6-3.5
					c0-1.2,0.6-2.1,1.7-2.4v-0.1h-5.2v-2.2h12.6v2.2H1995.9z M1994.4,1447.8h-2.8c-0.9,0-1.4,0.8-1.4,1.8c0,1.1,0.8,1.9,2.1,1.9h1.5
					c1.3,0,2.1-0.8,2.1-1.9C1995.8,1448.6,1995.3,1447.8,1994.4,1447.8z"/>
				<path class="st20" d="M1997.4,1437.2l-11.9,2.8v-2.2l5.7-1.2l3.6-0.7v-0.1l-3.6-0.8l-5.7-1.4v-2.5l5.7-1.4l3.6-0.8v-0.1
					l-3.6-0.7l-5.7-1.2v-2.1l11.9,2.8v2.5l-6.3,1.5l-3.1,0.7v0l3.1,0.8l6.3,1.5V1437.2z"/>
				<path class="st20" d="M1986.2,1423.2h-0.3c-0.6,0-1.1-0.4-1.1-1.3c0-0.9,0.5-1.3,1.1-1.3h0.3c0.6,0,1.1,0.4,1.1,1.3
					C1987.2,1422.8,1986.8,1423.2,1986.2,1423.2z M1988.5,1423v-2.2h8.9v2.2H1988.5z"/>
				<path class="st20" d="M1995.9,1412.8L1995.9,1412.8c1,0.4,1.7,1.4,1.7,2.5c0,2.2-1.7,3.5-4.7,3.5c-3,0-4.6-1.2-4.6-3.5
					c0-1.2,0.6-2.1,1.7-2.4v-0.1h-5.2v-2.2h12.6v2.2H1995.9z M1994.4,1412.8h-2.8c-0.9,0-1.4,0.8-1.4,1.8c0,1.1,0.8,1.9,2.1,1.9h1.5
					c1.3,0,2.1-0.8,2.1-1.9C1995.8,1413.6,1995.3,1412.8,1994.4,1412.8z"/>
				<path class="st20" d="M1993,1408.7c-2.8,0-4.6-1.5-4.6-4.1c0-2.8,2-4,4.5-4h0.7v5.9h0.2c1.3,0,2.1-0.7,2.1-2.2
					c0-1.1-0.5-1.7-1.2-2.3l1.3-1.2c1,0.7,1.6,2,1.6,3.7C1997.6,1407.2,1995.8,1408.7,1993,1408.7z M1992,1406.5h0.1v-3.6h-0.2
					c-1.2,0-2.1,0.6-2.1,1.8C1990,1405.7,1990.8,1406.5,1992,1406.5z"/>
				<path class="st20" d="M1997.4,1392.7l-11.9,2.8v-2.2l5.7-1.2l3.6-0.7v-0.1l-3.6-0.8l-5.7-1.4v-2.5l5.7-1.4l3.6-0.8v-0.1
					l-3.6-0.7l-5.7-1.2v-2.1l11.9,2.8v2.5l-6.3,1.5l-3.1,0.7v0l3.1,0.8l6.3,1.5V1392.7z"/>
				<path class="st20" d="M1993,1379.5c-2.8,0-4.6-1.5-4.6-4.1c0-2.8,2-4,4.5-4h0.7v5.9h0.2c1.3,0,2.1-0.7,2.1-2.2
					c0-1.1-0.5-1.7-1.2-2.3l1.3-1.2c1,0.7,1.6,2,1.6,3.7C1997.6,1377.9,1995.8,1379.5,1993,1379.5z M1992,1377.2h0.1v-3.6h-0.2
					c-1.2,0-2.1,0.6-2.1,1.8C1990,1376.5,1990.8,1377.2,1992,1377.2z"/>
				<path class="st20" d="M1984.8,1369.4v-2.2h5.2v-0.1c-1-0.3-1.7-1.3-1.7-2.4c0-2.2,1.7-3.5,4.6-3.5c3,0,4.7,1.2,4.7,3.5
					c0,1.2-0.7,2.1-1.7,2.4v0.1h1.5v2.2H1984.8z M1993.7,1363.5h-1.5c-1.3,0-2.1,0.8-2.1,1.9c0,1,0.6,1.8,1.4,1.8h2.8
					c0.9,0,1.4-0.8,1.4-1.8C1995.8,1364.3,1995,1363.5,1993.7,1363.5z"/>
				<path class="st20" d="M1991.6,1355.5c-4,0-6.2-2-6.2-5.1c0-2.1,0.9-3.5,2.7-4.3l1,1.9c-1.1,0.3-1.8,1.1-1.8,2.4
					c0,1.7,1.2,2.7,3.2,2.7h1.9c2,0,3.2-1.1,3.2-2.7c0-1.3-0.8-2.2-1.9-2.6l1.1-1.8c1.8,0.8,2.8,2.3,2.8,4.4
					C1997.6,1353.6,1995.6,1355.5,1991.6,1355.5z"/>
				<path class="st20" d="M1993,1344.8c-2.8,0-4.6-1.6-4.6-4.1c0-2.5,1.8-4.1,4.6-4.1c2.9,0,4.7,1.6,4.7,4.1
					C1997.6,1343.3,1995.8,1344.8,1993,1344.8z M1993.8,1338.9h-1.6c-1.3,0-2.1,0.7-2.1,1.9c0,1.1,0.7,1.8,2.1,1.8h1.6
					c1.3,0,2.1-0.7,2.1-1.8C1995.9,1339.6,1995.1,1338.9,1993.8,1338.9z"/>
				<path class="st20" d="M1997.4,1334.7h-8.9v-2.2h1.5v-0.1c-1-0.4-1.7-1.1-1.7-2.5c0-1.8,1.3-2.8,3.5-2.8h5.6v2.2h-5.4
					c-1.3,0-1.9,0.4-1.9,1.5c0,0.9,0.5,1.8,1.4,1.8h5.9V1334.7z"/>
				<path class="st20" d="M1996,1325.4l-1.3-1.3c0.7-0.6,1.2-1.4,1.2-2.4c0-1-0.4-1.5-1-1.5c-0.5,0-0.8,0.3-0.9,1.1l-0.1,0.9
					c-0.2,1.9-1.1,3-2.7,3c-1.7,0-2.8-1.3-2.8-3.4c0-1.7,0.5-2.6,1.4-3.5l1.3,1.3c-0.5,0.5-1,1.3-1,2.1c0,0.9,0.4,1.3,0.9,1.3
					c0.6,0,0.9-0.3,1-1.2l0.1-0.9c0.3-1.9,1.1-2.9,2.6-2.9c1.7,0,2.9,1.4,2.9,3.7C1997.6,1323.5,1997,1324.6,1996,1325.4z"/>
				<path class="st20" d="M1993,1316.8c-2.8,0-4.6-1.6-4.6-4.1c0-2.5,1.8-4.1,4.6-4.1c2.9,0,4.7,1.6,4.7,4.1
					C1997.6,1315.2,1995.8,1316.8,1993,1316.8z M1993.8,1310.8h-1.6c-1.3,0-2.1,0.7-2.1,1.9c0,1.1,0.7,1.8,2.1,1.8h1.6
					c1.3,0,2.1-0.7,2.1-1.8C1995.9,1311.5,1995.1,1310.8,1993.8,1310.8z"/>
				<path class="st20" d="M1997.4,1306.6h-8.9v-2.2h1.8v-0.1c-0.9-0.2-1.8-0.9-1.8-2.3v-0.5h2.1v0.7c0,1.5,0.4,2.2,1.4,2.2h5.4
					V1306.6z"/>
				<path class="st20" d="M1995.2,1299.4h-4.9v1.3h-1.7v-0.7c0-0.6-0.3-0.8-0.9-0.8h-1.5v-2h2.4v-1.8h1.7v1.8h5.4v-1.7h1.7v1.6
					C1997.4,1298.6,1996.6,1299.4,1995.2,1299.4z"/>
				<path class="st20" d="M1986.2,1293.7h-0.3c-0.6,0-1.1-0.4-1.1-1.3c0-0.9,0.5-1.3,1.1-1.3h0.3c0.6,0,1.1,0.4,1.1,1.3
					C1987.2,1293.3,1986.8,1293.7,1986.2,1293.7z M1988.5,1293.5v-2.2h8.9v2.2H1988.5z"/>
				<path class="st20" d="M1995.9,1283.5L1995.9,1283.5c0.9,0.4,1.7,1.1,1.7,2.6c0,1.8-1.3,2.8-3.5,2.8h-5.6v-2.2h5.4
					c1.2,0,1.9-0.5,1.9-1.5c0-0.9-0.5-1.7-1.4-1.7h-5.9v-2.2h8.9v2.2H1995.9z"/>
				<path class="st20" d="M1997.4,1278.8h-8.9v-2.2h1.5v-0.1c-0.9-0.3-1.7-1.1-1.7-2.4c0-1.2,0.6-2.1,1.8-2.6v0
					c-1-0.3-1.8-1.3-1.8-2.7c0-1.7,1.3-2.7,3.5-2.7h5.6v2.2h-5.4c-1.3,0-1.9,0.5-1.9,1.4c0,0.9,0.5,1.6,1.4,1.6h5.9v2.2h-5.4
					c-1.3,0-1.9,0.5-1.9,1.4c0,0.8,0.5,1.6,1.4,1.6h5.9V1278.8z"/>
				<path class="st20" d="M1984.5,1257.1v-2.1c1.7,1.8,4.2,3,7,3h1.3c2.8,0,5.4-1.2,7-3v2.1c-1.4,1.7-4.3,3-7.6,3
					C1988.8,1260.1,1986,1258.8,1984.5,1257.1z"/>
				<path class="st20" d="M1997.4,1251.7l-11.9,2.8v-2.2l5.7-1.2l3.6-0.7v-0.1l-3.6-0.8l-5.7-1.4v-2.5l5.7-1.4l3.6-0.8v-0.1
					l-3.6-0.7l-5.7-1.2v-2.1l11.9,2.8v2.5l-6.3,1.5l-3.1,0.7v0l3.1,0.8l6.3,1.5V1251.7z"/>
				<path class="st20" d="M1990.3,1234.3c0-1.4-0.6-2-1.5-2h-0.1c-1,0-1.6,0.7-1.6,1.8c0,1,0.5,1.9,1.4,2.4l-1.3,1.4
					c-1.1-0.8-2-1.9-2-3.9c0-2.4,1.2-4,3.1-4c1.5,0,2.4,1,2.7,2.3h0.1c0.3-1.4,1.2-2.5,2.9-2.5c2.1,0,3.5,1.8,3.5,4.4
					c0,2.3-1.1,3.5-2.2,4.2l-1.3-1.6c1-0.5,1.6-1.2,1.6-2.6c0-1.3-0.7-2-1.8-2h-0.1c-1.1,0-1.7,0.8-1.7,2.2v1.2h-1.9V1234.3z"/>
				<path class="st20" d="M1991.6,1227.7c-4,0-6.2-2-6.2-5.1c0-2.1,0.9-3.5,2.7-4.3l1,1.9c-1.1,0.3-1.8,1.1-1.8,2.4
					c0,1.7,1.2,2.7,3.2,2.7h1.9c2,0,3.2-1.1,3.2-2.7c0-1.3-0.8-2.2-1.9-2.6l1.1-1.8c1.8,0.8,2.8,2.3,2.8,4.4
					C1997.6,1225.7,1995.6,1227.7,1991.6,1227.7z"/>
				<path class="st20" d="M1999.8,1215.8v2.1c-1.7-1.8-4.2-3-7-3h-1.3c-2.8,0-5.3,1.2-7,3v-2.1c1.4-1.7,4.3-3,7.6-3
					S1998.3,1214.1,1999.8,1215.8z"/>
			</g>
		</g>
	</g>
	<rect x="3780.2" y="1530.5" class="st23" width="133.1" height="60.2"/>
	<g class="st5">
		<defs>
			<rect id="SVGID_41_" x="-11" width="6601.5" height="1700.9"/>
		</defs>
		<clipPath id="SVGID_42_">
			<use xlink:href="#SVGID_41_"  style="overflow:visible;"/>
		</clipPath>
		<g class="st40">
			<g class="st39">
				<path class="st20" d="M3795.4,1551.8v-1.8h1.6v-8.3h-1.6v-1.8h5.4v1.8h-1.6v8.3h1.6v1.8H3795.4z"/>
				<path class="st20" d="M3803.1,1540h4.3c3.1,0,5.1,2,5.1,5.9s-2,5.9-5.1,5.9h-4.3V1540z M3807.4,1549.8c1.7,0,2.7-1,2.7-3v-1.9
					c0-2-1.1-3-2.7-3h-2.1v7.9H3807.4z"/>
				<path class="st20" d="M3814.8,1551.8V1540h5.3c2.2,0,3.5,1.5,3.5,3.7c0,2.2-1.3,3.7-3.5,3.7h-3.1v4.5H3814.8z M3817,1545.4h2.9
					c0.9,0,1.4-0.5,1.4-1.3v-0.8c0-0.9-0.5-1.3-1.4-1.3h-2.9V1545.4z"/>
				<path class="st20" d="M3825.7,1551.8V1540h7.6v2h-5.4v2.9h4.7v2h-4.7v5H3825.7z"/>
			</g>
		</g>
	</g>
	<g class="st5">
		<defs>
			<rect id="SVGID_43_" x="-11" width="6601.5" height="1700.9"/>
		</defs>
		<clipPath id="SVGID_44_">
			<use xlink:href="#SVGID_43_"  style="overflow:visible;"/>
		</clipPath>
		<g class="st41">
			<g class="st39">
				<path class="st26" d="M3797.8,1567.3v-0.6h1.2v-7h-1.2v-0.6h3.1v0.6h-1.2v7h1.2v0.6H3797.8z"/>
				<path class="st26" d="M3802.7,1567.3v-6h0.7v1h0c0.3-0.6,0.8-1.1,1.8-1.1c1.3,0,2,0.8,2,2.3v3.9h-0.7v-3.7
					c0-1.2-0.5-1.8-1.5-1.8c-0.8,0-1.6,0.4-1.6,1.3v4.2H3802.7z"/>
				<path class="st26" d="M3810.4,1567.3c-0.5,0-0.7-0.3-0.7-0.7v-4.7h-1v-0.6h0.7c0.3,0,0.4-0.1,0.4-0.5v-1.2h0.6v1.7h1.4v0.6h-1.4
					v4.8h1.3v0.6H3810.4z"/>
				<path class="st26" d="M3812.8,1564.3c0-2,1-3.1,2.6-3.1c1.5,0,2.5,1.2,2.5,3v0.3h-4.5v0.3c0,1.3,0.7,2.1,2,2.1
					c0.9,0,1.5-0.4,1.8-1.2l0.5,0.3c-0.4,0.9-1.2,1.5-2.3,1.5C3813.8,1567.5,3812.8,1566.3,3812.8,1564.3z M3813.5,1563.9
					L3813.5,1563.9l3.7,0.1v-0.1c0-1.3-0.7-2.1-1.8-2.1C3814.2,1561.7,3813.5,1562.6,3813.5,1563.9z"/>
				<path class="st26" d="M3819.6,1567.3v-6h0.7v1.1h0c0.2-0.6,0.8-1.1,1.8-1.1h0.4v0.7h-0.5c-1,0-1.7,0.5-1.7,1.2v4.1H3819.6z"/>
				<path class="st26" d="M3823.8,1567.3v-6h0.7v1h0c0.3-0.6,0.8-1.1,1.8-1.1c1.3,0,2,0.8,2,2.3v3.9h-0.7v-3.7
					c0-1.2-0.5-1.8-1.5-1.8c-0.8,0-1.6,0.4-1.6,1.3v4.2H3823.8z"/>
				<path class="st26" d="M3834.6,1567.3c-0.5,0-0.7-0.3-0.8-0.7v-0.2h-0.1c-0.3,0.7-0.9,1.1-1.8,1.1c-1.3,0-2-0.7-2-1.8
					c0-1.1,0.7-1.7,2.4-1.7h1.4v-0.7c0-1-0.5-1.5-1.5-1.5c-0.8,0-1.3,0.4-1.6,1l-0.4-0.4c0.3-0.7,1-1.2,2.1-1.2c1.4,0,2.2,0.7,2.2,2
					v3.6h0.8v0.6H3834.6z M3833.8,1565.6v-1.1h-1.4c-1.2,0-1.7,0.4-1.7,1.1v0.3c0,0.7,0.6,1.1,1.4,1.1
					C3833,1566.9,3833.8,1566.4,3833.8,1565.6z"/>
				<path class="st26" d="M3837.7,1567.3c-0.5,0-0.7-0.3-0.7-0.7v-4.7h-1v-0.6h0.7c0.3,0,0.4-0.1,0.4-0.5v-1.2h0.6v1.7h1.4v0.6h-1.4
					v4.8h1.3v0.6H3837.7z"/>
				<path class="st26" d="M3840.5,1559.2v-0.1c0-0.2,0.1-0.4,0.5-0.4s0.5,0.2,0.5,0.4v0.1c0,0.2-0.1,0.4-0.5,0.4
					S3840.5,1559.5,3840.5,1559.2z M3840.6,1561.3h0.7v6h-0.7V1561.3z"/>
				<path class="st26" d="M3843,1564.3c0-2,1-3.1,2.6-3.1c1.6,0,2.6,1.2,2.6,3.1s-1,3.1-2.6,3.1
					C3844,1567.5,3843,1566.3,3843,1564.3z M3847.5,1564.7v-0.8c0-1.4-0.7-2.2-1.9-2.2c-1.2,0-1.9,0.8-1.9,2.2v0.8
					c0,1.4,0.7,2.2,1.9,2.2C3846.8,1566.9,3847.5,1566.1,3847.5,1564.7z"/>
				<path class="st26" d="M3849.9,1567.3v-6h0.7v1h0c0.3-0.6,0.8-1.1,1.8-1.1c1.3,0,2,0.8,2,2.3v3.9h-0.7v-3.7
					c0-1.2-0.5-1.8-1.5-1.8c-0.8,0-1.6,0.4-1.6,1.3v4.2H3849.9z"/>
				<path class="st26" d="M3860.7,1567.3c-0.5,0-0.7-0.3-0.8-0.7v-0.2h-0.1c-0.3,0.7-0.9,1.1-1.8,1.1c-1.3,0-2-0.7-2-1.8
					c0-1.1,0.7-1.7,2.4-1.7h1.4v-0.7c0-1-0.5-1.5-1.5-1.5c-0.8,0-1.3,0.4-1.6,1l-0.4-0.4c0.3-0.7,1-1.2,2.1-1.2c1.4,0,2.2,0.7,2.2,2
					v3.6h0.8v0.6H3860.7z M3859.9,1565.6v-1.1h-1.4c-1.2,0-1.7,0.4-1.7,1.1v0.3c0,0.7,0.6,1.1,1.4,1.1
					C3859.1,1566.9,3859.9,1566.4,3859.9,1565.6z"/>
				<path class="st26" d="M3863.5,1567.3c-0.5,0-0.7-0.3-0.7-0.7v-8h0.7v8.1h0.9v0.6H3863.5z"/>
				<path class="st26" d="M3868.7,1559.1h2.6c2.1,0,3.3,1.4,3.3,4.1s-1.2,4.1-3.3,4.1h-2.6V1559.1z M3871.3,1566.7
					c1.6,0,2.5-1.1,2.5-2.9v-1.1c0-1.8-0.9-2.9-2.5-2.9h-1.9v7H3871.3z"/>
				<path class="st26" d="M3876.3,1559.2v-0.1c0-0.2,0.1-0.4,0.5-0.4s0.5,0.2,0.5,0.4v0.1c0,0.2-0.1,0.4-0.5,0.4
					S3876.3,1559.5,3876.3,1559.2z M3876.4,1561.3h0.7v6h-0.7V1561.3z"/>
				<path class="st26" d="M3881.3,1569.8c-1.8,0-2.6-0.6-2.6-1.5c0-0.7,0.4-1.1,1-1.3v-0.1c-0.4-0.2-0.6-0.4-0.6-0.8
					c0-0.6,0.4-0.9,1-1v0c-0.7-0.3-1.1-1-1.1-1.8c0-1.2,0.9-2,2.2-2c0.5,0,0.9,0.1,1.2,0.3v-0.3c0-0.4,0.2-0.6,0.6-0.6h1v0.6h-1.2
					v0.6c0.4,0.4,0.6,0.9,0.6,1.5c0,1.2-0.9,2.1-2.2,2.1c-0.2,0-0.4,0-0.6-0.1c-0.5,0.1-0.9,0.4-0.9,0.8c0,0.4,0.3,0.5,1,0.5h1.4
					c1.4,0,2.1,0.6,2.1,1.5C3884.2,1569.2,3883.2,1569.8,3881.3,1569.8z M3882.1,1567.1h-2c-0.5,0.2-0.8,0.5-0.8,1
					c0,0.6,0.5,1.1,1.6,1.1h0.8c1.2,0,1.9-0.4,1.9-1.2C3883.6,1567.5,3883.2,1567.1,3882.1,1567.1z M3882.8,1563.4v-0.4
					c0-0.8-0.6-1.3-1.5-1.3c-0.9,0-1.5,0.5-1.5,1.3v0.4c0,0.8,0.6,1.3,1.5,1.3C3882.2,1564.7,3882.8,1564.2,3882.8,1563.4z"/>
				<path class="st26" d="M3885.4,1559.2v-0.1c0-0.2,0.1-0.4,0.5-0.4s0.5,0.2,0.5,0.4v0.1c0,0.2-0.1,0.4-0.5,0.4
					S3885.4,1559.5,3885.4,1559.2z M3885.5,1561.3h0.7v6h-0.7V1561.3z"/>
				<path class="st26" d="M3889.4,1567.3c-0.5,0-0.7-0.3-0.7-0.7v-4.7h-1v-0.6h0.7c0.3,0,0.4-0.1,0.4-0.5v-1.2h0.6v1.7h1.4v0.6h-1.4
					v4.8h1.3v0.6H3889.4z"/>
				<path class="st26" d="M3896.4,1567.3c-0.5,0-0.7-0.3-0.8-0.7v-0.2h-0.1c-0.3,0.7-0.9,1.1-1.8,1.1c-1.3,0-2-0.7-2-1.8
					c0-1.1,0.7-1.7,2.4-1.7h1.4v-0.7c0-1-0.5-1.5-1.5-1.5c-0.8,0-1.3,0.4-1.6,1l-0.4-0.4c0.3-0.7,1-1.2,2.1-1.2c1.4,0,2.2,0.7,2.2,2
					v3.6h0.8v0.6H3896.4z M3895.6,1565.6v-1.1h-1.4c-1.2,0-1.7,0.4-1.7,1.1v0.3c0,0.7,0.6,1.1,1.4,1.1
					C3894.8,1566.9,3895.6,1566.4,3895.6,1565.6z"/>
				<path class="st26" d="M3899.2,1567.3c-0.5,0-0.7-0.3-0.7-0.7v-8h0.7v8.1h0.9v0.6H3899.2z"/>
			</g>
			<g class="st39">
				<path class="st26" d="M3798.2,1581.4v-8.2h3.2c1.4,0,2.2,0.9,2.2,2.3c0,1.4-0.8,2.3-2.2,2.3h-2.5v3.6H3798.2z M3798.9,1577.2
					h2.5c0.9,0,1.4-0.6,1.4-1.4v-0.6c0-0.8-0.5-1.4-1.4-1.4h-2.5V1577.2z"/>
				<path class="st26" d="M3809,1580.5L3809,1580.5c-0.3,0.6-0.8,1.1-1.8,1.1c-1.3,0-2-0.8-2-2.3v-3.9h0.7v3.7
					c0,1.2,0.6,1.8,1.6,1.8c0.8,0,1.6-0.4,1.6-1.3v-4.2h0.7v6h-0.7V1580.5z"/>
				<path class="st26" d="M3811.8,1572.7h0.7v3.6h0c0.3-0.7,0.9-1.1,1.8-1.1c1.5,0,2.5,1.2,2.5,3.1s-0.9,3.1-2.5,3.1
					c-0.9,0-1.5-0.4-1.8-1.1h0v1h-0.7V1572.7z M3816.1,1578.8v-0.8c0-1.3-0.7-2.1-1.9-2.1c-0.9,0-1.7,0.6-1.7,1.3v2.4
					c0,0.8,0.8,1.4,1.7,1.4C3815.4,1581,3816.1,1580.1,3816.1,1578.8z"/>
				<path class="st26" d="M3819.3,1581.4c-0.5,0-0.7-0.3-0.7-0.7v-8h0.7v8.1h0.9v0.6H3819.3z"/>
				<path class="st26" d="M3821.6,1573.3v-0.1c0-0.2,0.1-0.4,0.5-0.4s0.5,0.2,0.5,0.4v0.1c0,0.2-0.1,0.4-0.5,0.4
					S3821.6,1573.6,3821.6,1573.3z M3821.7,1575.4h0.7v6h-0.7V1575.4z"/>
				<path class="st26" d="M3823.9,1580.4l0.5-0.4c0.5,0.6,1.1,1,1.9,1c0.9,0,1.4-0.4,1.4-1.1c0-0.6-0.4-1-1.2-1.1l-0.5-0.1
					c-1.1-0.2-1.8-0.6-1.8-1.7c0-1.1,0.9-1.7,2-1.7c1,0,1.6,0.4,2.1,0.9l-0.4,0.4c-0.3-0.4-0.8-0.8-1.6-0.8c-0.9,0-1.4,0.4-1.4,1.1
					c0,0.7,0.4,1,1.3,1.1l0.5,0.1c1.2,0.2,1.8,0.7,1.8,1.7c0,1.1-0.8,1.8-2.1,1.8C3825.2,1581.6,3824.5,1581.1,3823.9,1580.4z"/>
				<path class="st26" d="M3830.1,1572.7h0.7v3.6h0c0.3-0.6,0.8-1.1,1.8-1.1c1.3,0,2,0.8,2,2.3v3.9h-0.7v-3.7c0-1.2-0.5-1.8-1.5-1.8
					c-0.8,0-1.6,0.4-1.6,1.3v4.2h-0.7V1572.7z"/>
				<path class="st26" d="M3836.6,1573.3v-0.1c0-0.2,0.1-0.4,0.5-0.4s0.5,0.2,0.5,0.4v0.1c0,0.2-0.1,0.4-0.5,0.4
					S3836.6,1573.6,3836.6,1573.3z M3836.8,1575.4h0.7v6h-0.7V1575.4z"/>
				<path class="st26" d="M3839.6,1581.4v-6h0.7v1h0c0.3-0.6,0.8-1.1,1.8-1.1c1.3,0,2,0.8,2,2.3v3.9h-0.7v-3.7
					c0-1.2-0.5-1.8-1.5-1.8c-0.8,0-1.6,0.4-1.6,1.3v4.2H3839.6z"/>
				<path class="st26" d="M3848.3,1583.9c-1.8,0-2.6-0.6-2.6-1.5c0-0.7,0.4-1.1,1-1.3v-0.1c-0.4-0.2-0.6-0.4-0.6-0.8
					c0-0.6,0.4-0.9,1-1v0c-0.7-0.3-1.1-1-1.1-1.8c0-1.2,0.9-2,2.2-2c0.5,0,0.9,0.1,1.2,0.3v-0.3c0-0.4,0.2-0.6,0.6-0.6h1v0.6h-1.2
					v0.6c0.4,0.4,0.6,0.9,0.6,1.5c0,1.2-0.9,2.1-2.2,2.1c-0.2,0-0.4,0-0.6-0.1c-0.5,0.1-0.9,0.4-0.9,0.8c0,0.4,0.3,0.5,1,0.5h1.4
					c1.4,0,2.1,0.6,2.1,1.5C3851.2,1583.3,3850.2,1583.9,3848.3,1583.9z M3849.1,1581.2h-2c-0.5,0.2-0.8,0.5-0.8,1
					c0,0.6,0.5,1.1,1.6,1.1h0.8c1.2,0,1.9-0.4,1.9-1.2C3850.5,1581.6,3850.2,1581.2,3849.1,1581.2z M3849.7,1577.5v-0.4
					c0-0.8-0.6-1.3-1.5-1.3c-0.9,0-1.5,0.5-1.5,1.3v0.4c0,0.8,0.6,1.3,1.5,1.3C3849.2,1578.8,3849.7,1578.3,3849.7,1577.5z"/>
				<path class="st26" d="M3855.3,1581.4v-8.2h4.7v0.6h-4v3.1h3.7v0.6h-3.7v3.9H3855.3z"/>
				<path class="st26" d="M3860.9,1578.4c0-2,1-3.1,2.6-3.1c1.6,0,2.6,1.2,2.6,3.1s-1,3.1-2.6,3.1
					C3862,1581.6,3860.9,1580.4,3860.9,1578.4z M3865.5,1578.8v-0.8c0-1.4-0.7-2.2-1.9-2.2c-1.2,0-1.9,0.8-1.9,2.2v0.8
					c0,1.4,0.7,2.2,1.9,2.2C3864.7,1581,3865.5,1580.2,3865.5,1578.8z"/>
				<path class="st26" d="M3867.9,1581.4v-6h0.7v1.1h0c0.2-0.6,0.8-1.1,1.8-1.1h0.4v0.7h-0.5c-1,0-1.7,0.5-1.7,1.2v4.1H3867.9z"/>
				<path class="st26" d="M3875.8,1580.5L3875.8,1580.5c-0.3,0.6-0.8,1.1-1.8,1.1c-1.3,0-2-0.8-2-2.3v-3.9h0.7v3.7
					c0,1.2,0.6,1.8,1.6,1.8c0.8,0,1.6-0.4,1.6-1.3v-4.2h0.7v6h-0.7V1580.5z"/>
				<path class="st26" d="M3878.7,1581.4v-6h0.7v1h0c0.2-0.6,0.7-1.1,1.7-1.1c0.9,0,1.6,0.4,1.9,1.3h0c0.2-0.7,0.8-1.3,1.9-1.3
					c1.3,0,2,0.8,2,2.3v3.9h-0.7v-3.7c0-1.2-0.5-1.8-1.5-1.8c-0.8,0-1.6,0.4-1.6,1.3v4.2h-0.7v-3.7c0-1.2-0.5-1.8-1.5-1.8
					c-0.8,0-1.6,0.4-1.6,1.3v4.2H3878.7z"/>
			</g>
		</g>
	</g>
</g>
</svg>
